<svg id="Layer_1" height="512" viewBox="0 0 512 512" width="512" xmlns="http://www.w3.org/2000/svg" data-name="Layer 1"><path d="m380.34 160h-248.68a114.43 114.43 0 0 0 -114.66 114.39v115.89a11.686 11.686 0 0 0 11.47 11.72h455.06a11.686 11.686 0 0 0 11.47-11.72v-115.89a114.43 114.43 0 0 0 -114.66-114.39z" fill="#748279"/><path d="m158 160v63.26a34.81 34.81 0 0 0 34.54 34.74h126.92a34.81 34.81 0 0 0 34.54-34.74v-63.26z" fill="#6d7486"/><path d="m216.26 189.45h79.48v23.26h-79.48z" fill="#c6e02d"/><path d="m333.01 159.73h-20.59a56.42 56.42 0 1 0 -112.84 0h-20.59c.11-42.59 34.62-77.22 77.01-77.22s76.9 34.63 77.01 77.22z" fill="#748279"/><path d="m382 402h71v27h-71z" fill="#6d7486"/><path d="m436.58 401.52v.23h-38.12v-126.82a19.06 19.06 0 1 1 38.12 0z" fill="#c6e02d"/><path d="m59 402h71v27h-71z" fill="#6d7486"/><path d="m113.54 401.52v.23h-38.12v-126.82a19.06 19.06 0 1 1 38.12 0z" fill="#c6e02d"/><path d="m47 390.28v-115.89a114.43 114.43 0 0 1 114.66-114.39h-30a114.43 114.43 0 0 0 -114.66 114.39v115.89a11.686 11.686 0 0 0 11.47 11.72h30a11.686 11.686 0 0 1 -11.47-11.72z" fill="#93a398"/><g fill="#284268"><path d="m216 218h79a6 6 0 0 0 6-6v-23a6 6 0 0 0 -6-6h-79a6 6 0 0 0 -6 6v23a6 6 0 0 0 6 6zm6-23h68v12h-68z"/><path d="m42 299.537a6 6 0 0 0 -6 6v69.663a6 6 0 0 0 12 0v-69.663a6 6 0 0 0 -6-6z"/><path d="m42 273.689a6 6 0 0 0 -6 6v5.357a6 6 0 0 0 12 0v-5.357a6 6 0 0 0 -6-6z"/><path d="m380.342 154h-41.572c-3.07-43.207-39.009-77.425-82.77-77.425s-79.7 34.218-82.77 77.425h-41.572c-66.531 0-120.658 53.861-120.658 120.393v115.889a17.7 17.7 0 0 0 17.466 17.718h24.534v21.488c0 3.312 2.7 5.512 6.01 5.512h70.5c3.314 0 6.494-2.2 6.494-5.512v-21.488h239.996v21.488c0 3.313 3.18 5.512 6.494 5.512h70.5c3.313 0 6.01-2.2 6.01-5.512v-21.488h24.534a17.7 17.7 0 0 0 17.462-17.718v-115.889c0-66.532-54.127-120.393-120.658-120.393zm-124.342-65.425c37.125 0 67.667 29.157 70.734 65.425h-8.6a62.4 62.4 0 0 0 -124.276 0h-8.6c3.075-36.268 33.617-65.425 70.742-65.425zm50.061 65.425h-100.122a50.379 50.379 0 0 1 100.122 0zm-182.061 269h-59v-15h59zm-43-27v-121.067c0-7.257 6.3-13.161 13.5-13.161s13.5 5.9 13.5 13.161v121.067zm366 27h-59v-15h59zm-43-27v-121.067c0-7.257 6.3-13.161 13.5-13.161s13.5 5.9 13.5 13.161v121.067zm85-5.718a5.694 5.694 0 0 1 -5.466 5.718h-40.534v-121.067c0-13.874-11.683-25.161-25.5-25.161s-25.5 11.287-25.5 25.161v121.067h-272v-121.067c0-13.874-11.683-25.161-25.5-25.161s-25.5 11.287-25.5 25.161v121.067h-40.534a5.694 5.694 0 0 1 -5.466-5.718v-115.889c0-59.915 48.744-108.393 108.658-108.393h20.342v8a6 6 0 0 0 12 0v-8h184v57.257a28.847 28.847 0 0 1 -28.537 28.743h-126.926a28.847 28.847 0 0 1 -28.537-28.743v-9.257a6 6 0 0 0 -12 0v9.257a40.859 40.859 0 0 0 40.537 40.743h126.926a40.859 40.859 0 0 0 40.537-40.743v-57.257h20.342c59.914 0 108.658 48.478 108.658 108.393z"/></g></svg>